<?xml version="1.0" encoding="UTF-8" standalone="no"?>
<!DOCTYPE svg PUBLIC "-//W3C//DTD SVG 1.1//EN" "http://www.w3.org/Graphics/SVG/1.1/DTD/svg11.dtd">
<svg width="100%" height="100%" viewBox="0 0 500 500" version="1.1" xmlns="http://www.w3.org/2000/svg" xmlns:xlink="http://www.w3.org/1999/xlink" xml:space="preserve" xmlns:serif="http://www.serif.com/" style="fill-rule:evenodd;clip-rule:evenodd;stroke-linejoin:round;stroke-miterlimit:2;">
    <g id="OBJECTS">
        <g>
            <path d="M254.614,23.779C151.287,23.779 67.524,107.542 67.524,210.87C67.524,314.197 151.287,397.96 254.614,397.96C357.941,397.96 441.704,314.197 441.704,210.87C441.704,107.542 357.941,23.779 254.614,23.779ZM254.614,336.338C185.32,336.338 129.146,280.163 129.146,210.869C129.146,141.575 185.32,85.401 254.614,85.401C323.908,85.401 380.082,141.574 380.082,210.869C380.082,280.163 323.908,336.338 254.614,336.338Z" style="fill:url(#_Radial1);fill-rule:nonzero;"/>
            <g>
                <g opacity="0.15">
                    <path d="M135.739,127.236C126.798,137.089 111.561,137.828 101.708,128.886C91.855,119.944 91.116,104.707 100.058,94.854C108.999,85.001 124.236,84.262 134.089,93.204C143.942,102.146 144.681,117.382 135.739,127.236Z" style="fill-rule:nonzero;"/>
                    <path d="M132.038,123.877C124.951,131.686 112.875,132.272 105.066,125.185C97.257,118.098 96.671,106.023 103.758,98.214C110.845,90.405 122.921,89.819 130.73,96.906C138.539,103.993 139.125,116.068 132.038,123.877Z" style="fill-rule:nonzero;"/>
                    <g transform="matrix(0.672,-0.7405,0.7405,0.672,-65.894,117.037)">
                        <rect x="91.813" y="129.513" width="14.737" height="6.792"/>
                    </g>
                    <path d="M90.925,149.73C89.403,151.407 86.81,151.533 85.132,150.011L83.519,148.547C81.842,147.025 81.716,144.431 83.238,142.754L93.056,131.936C94.578,130.259 97.171,130.133 98.848,131.655L100.461,133.119C102.138,134.641 102.264,137.234 100.742,138.912L90.925,149.73Z" style="fill-rule:nonzero;"/>
                </g>
                <g>
                    <g>
                        <path d="M131.739,123.236C122.798,133.089 107.561,133.828 97.708,124.886C87.855,115.944 87.116,100.707 96.058,90.854C104.999,81.001 120.236,80.262 130.089,89.204C139.942,98.146 140.681,113.382 131.739,123.236Z" style="fill:rgb(27,48,103);fill-rule:nonzero;"/>
                        <path d="M128.038,119.877C120.951,127.686 108.875,128.272 101.066,121.185C93.257,114.098 92.671,102.023 99.758,94.214C106.845,86.405 118.921,85.819 126.73,92.906C134.539,99.992 135.125,112.068 128.038,119.877Z" style="fill:rgb(175,215,233);fill-rule:nonzero;"/>
                        <g transform="matrix(0.672,-0.7405,0.7405,0.672,-64.2438,112.763)">
                            <rect x="87.813" y="125.513" width="14.737" height="6.792" style="fill:rgb(27,48,103);"/>
                        </g>
                        <path d="M86.925,145.73C85.403,147.407 82.81,147.533 81.132,146.011L79.519,144.547C77.842,143.025 77.716,140.431 79.238,138.754L89.056,127.936C90.578,126.259 93.171,126.133 94.848,127.655L96.461,129.119C98.138,130.641 98.264,133.234 96.742,134.912L86.925,145.73Z" style="fill:rgb(27,48,103);fill-rule:nonzero;"/>
                    </g>
                </g>
            </g>
            <g>
                <g opacity="0.15">
                    <path d="M238.195,71.299C238.195,73.564 236.359,75.4 234.094,75.4L169.591,75.4C167.326,75.4 165.49,73.564 165.49,71.299L165.49,33.944C165.49,31.679 167.326,29.843 169.591,29.843L234.094,29.843C236.359,29.843 238.195,31.679 238.195,33.944L238.195,71.299Z" style="fill-rule:nonzero;"/>
                    <path d="M209.993,50.328L237.927,32.523C237.387,31.068 236.052,30.018 234.445,29.88L201.425,50.927L168.642,29.966C167.172,30.316 166.019,31.455 165.638,32.913L192.777,50.264L165.522,71.61C165.637,73.113 166.549,74.384 167.848,74.999L196.439,52.606L201.423,55.792L206.328,52.666L235.156,75.245C236.581,74.862 237.693,73.74 238.057,72.308L209.993,50.328Z" style="fill-rule:nonzero;"/>
                </g>
                <g>
                    <g>
                        <path d="M234.195,67.299C234.195,69.564 232.359,71.4 230.094,71.4L165.591,71.4C163.326,71.4 161.49,69.564 161.49,67.299L161.49,29.944C161.49,27.679 163.326,25.843 165.591,25.843L230.094,25.843C232.359,25.843 234.195,27.679 234.195,29.944L234.195,67.299Z" style="fill:rgb(27,48,103);fill-rule:nonzero;"/>
                        <path d="M205.993,46.328L233.927,28.523C233.387,27.068 232.052,26.018 230.445,25.88L197.425,46.927L164.642,25.966C163.172,26.316 162.019,27.455 161.638,28.913L188.777,46.264L161.522,67.61C161.637,69.113 162.549,70.384 163.848,70.999L192.439,48.606L197.423,51.792L202.328,48.666L231.156,71.245C232.581,70.862 233.693,69.74 234.057,68.308L205.993,46.328Z" style="fill:rgb(175,215,233);fill-rule:nonzero;"/>
                    </g>
                </g>
            </g>
            <g>
                <g opacity="0.15">
                    <path d="M366.043,70.638C367.935,67.768 369.043,64.337 369.043,60.642C369.043,50.592 360.896,42.445 350.846,42.445C349.012,42.445 347.244,42.722 345.575,43.227C344.963,33.731 337.088,26.213 327.437,26.213C317.387,26.213 309.24,34.36 309.24,44.41C309.24,46.605 309.649,48.7 310.361,50.648C307.721,51.249 305.525,53.003 304.326,55.356C302.75,54.805 301.062,54.491 299.298,54.491C290.867,54.491 284.032,61.325 284.032,69.757C284.032,70.055 284.059,70.345 284.076,70.638L366.043,70.638Z" style="fill-rule:nonzero;"/>
                </g>
                <g>
                    <path d="M362.043,66.638C363.935,63.768 365.043,60.337 365.043,56.642C365.043,46.592 356.896,38.445 346.846,38.445C345.012,38.445 343.244,38.722 341.575,39.227C340.963,29.731 333.088,22.213 323.437,22.213C313.387,22.213 305.24,30.36 305.24,40.41C305.24,42.605 305.649,44.7 306.361,46.648C303.721,47.249 301.525,49.003 300.326,51.356C298.75,50.805 297.062,50.491 295.298,50.491C286.867,50.491 280.032,57.325 280.032,65.757C280.032,66.055 280.059,66.345 280.076,66.638L362.043,66.638Z" style="fill:rgb(175,215,233);fill-rule:nonzero;"/>
                </g>
            </g>
            <g>
                <g opacity="0.15">
                    <path d="M414.676,201.378L401.957,215.524L414.676,215.524L414.676,201.378Z" style="fill-rule:nonzero;"/>
                    <path d="M416.727,201.342L416.727,217.574L401.381,217.574L401.381,275.498L455.374,275.498L455.374,201.342L416.727,201.342Z" style="fill-rule:nonzero;"/>
                    <rect x="410.351" y="222.503" width="36.822" height="3.335"/>
                    <rect x="410.351" y="230.704" width="36.822" height="3.336"/>
                    <rect x="410.351" y="238.906" width="36.822" height="3.336"/>
                    <rect x="410.351" y="247.107" width="36.822" height="3.335"/>
                    <rect x="410.351" y="255.308" width="36.822" height="3.336"/>
                </g>
                <g>
                    <g>
                        <g>
                            <path d="M410.676,197.378L397.957,211.524L410.676,211.524L410.676,197.378Z" style="fill:rgb(175,215,233);fill-rule:nonzero;"/>
                            <path d="M412.727,197.342L412.727,213.574L397.381,213.574L397.381,271.498L451.374,271.498L451.374,197.342L412.727,197.342Z" style="fill:rgb(175,215,233);fill-rule:nonzero;"/>
                        </g>
                        <g>
                            <rect x="406.351" y="218.503" width="36.822" height="3.335" style="fill:rgb(27,48,103);"/>
                            <rect x="406.351" y="226.704" width="36.822" height="3.336" style="fill:rgb(27,48,103);"/>
                            <rect x="406.351" y="234.906" width="36.822" height="3.336" style="fill:rgb(27,48,103);"/>
                            <rect x="406.351" y="243.107" width="36.822" height="3.335" style="fill:rgb(27,48,103);"/>
                            <rect x="406.351" y="251.308" width="36.822" height="3.336" style="fill:rgb(27,48,103);"/>
                        </g>
                    </g>
                </g>
            </g>
            <g>
                <g opacity="0.15">
                    <path d="M405.089,93.162C384.92,93.162 368.569,109.513 368.569,129.682C368.569,149.85 384.92,166.201 405.089,166.201C425.258,166.201 441.608,149.85 441.608,129.682C441.608,109.513 425.258,93.162 405.089,93.162ZM405.089,158.576C389.131,158.576 376.195,145.639 376.195,129.683C376.195,113.725 389.131,100.788 405.089,100.788C421.047,100.788 433.983,113.725 433.983,129.683C433.983,145.639 421.046,158.576 405.089,158.576Z" style="fill-rule:nonzero;"/>
                    <path d="M405.088,100.251L408.798,114.955L412.508,129.658L397.669,129.658L401.378,114.955L405.088,100.251Z" style="fill-rule:nonzero;"/>
                    <path d="M405.088,159.112L401.378,144.408L397.669,129.705L412.508,129.705L408.798,144.408L405.088,159.112Z" style="fill-rule:nonzero;"/>
                </g>
                <g>
                    <g>
                        <path d="M401.089,89.162C380.92,89.162 364.569,105.513 364.569,125.682C364.569,145.85 380.92,162.201 401.089,162.201C421.258,162.201 437.608,145.85 437.608,125.682C437.608,105.513 421.258,89.162 401.089,89.162ZM401.089,154.576C385.131,154.576 372.195,141.639 372.195,125.682C372.195,109.725 385.131,96.787 401.089,96.787C417.047,96.787 429.983,109.724 429.983,125.682C429.983,141.639 417.046,154.576 401.089,154.576Z" style="fill:rgb(27,48,103);fill-rule:nonzero;"/>
                        <g>
                            <path d="M401.088,96.251L404.798,110.955L408.508,125.658L393.669,125.658L397.378,110.955L401.088,96.251Z" style="fill:rgb(175,215,233);fill-rule:nonzero;"/>
                            <path d="M401.088,155.112L397.378,140.408L393.669,125.705L408.508,125.705L404.798,140.408L401.088,155.112Z" style="fill:rgb(27,48,103);fill-rule:nonzero;"/>
                        </g>
                    </g>
                </g>
            </g>
            <g>
                <g opacity="0.15">
                    <path d="M379.734,356.023L403.529,332.228C397.29,326.908 389.205,323.69 380.364,323.69C361.777,323.69 346.511,337.884 344.799,356.023L379.734,356.023Z" style="fill-rule:nonzero;"/>
                    <path d="M378.289,361.149L344.676,361.149C345.552,379.544 360.339,394.292 378.749,395.11L378.289,361.149Z" style="fill-rule:nonzero;"/>
                    <path d="M407.182,335.825L383.395,359.611L383.875,394.978C401.96,393.213 416.093,377.968 416.093,359.421C416.094,350.375 412.725,342.119 407.182,335.825Z" style="fill-rule:nonzero;"/>
                </g>
                <g>
                    <g>
                        <path d="M375.734,352.023L399.529,328.228C393.29,322.908 385.205,319.69 376.364,319.69C357.777,319.69 342.511,333.884 340.799,352.023L375.734,352.023Z" style="fill:rgb(175,215,233);fill-rule:nonzero;"/>
                        <path d="M374.289,357.149L340.676,357.149C341.552,375.544 356.339,390.292 374.749,391.11L374.289,357.149Z" style="fill:rgb(27,48,103);fill-rule:nonzero;"/>
                        <path d="M403.182,331.825L379.395,355.611L379.875,390.978C397.96,389.213 412.093,373.968 412.093,355.421C412.094,346.375 408.725,338.119 403.182,331.825Z" style="fill:rgb(27,48,103);fill-rule:nonzero;"/>
                    </g>
                </g>
            </g>
            <g>
                <g opacity="0.15">
                    <path d="M96.766,284.225C78.238,284.225 63.218,299.245 63.218,317.773C63.218,336.301 78.238,351.321 96.766,351.321C115.294,351.321 130.314,336.301 130.314,317.773C130.313,299.245 115.293,284.225 96.766,284.225ZM99.196,345.985C99.164,345.988 99.131,345.99 99.098,345.993L99.098,335.671L108.126,335.671C105.913,339.236 102.928,342.678 99.196,345.985ZM68.587,320.635L76.858,320.635C76.969,324.261 77.652,327.795 78.897,331.228L71.839,331.228C70.103,328.02 68.969,324.439 68.587,320.635ZM99.099,300.473L99.099,290.157C100.468,291.524 103.958,295.238 107.092,300.473L99.099,300.473ZM109.446,304.915C111.019,308.308 112.259,312.117 112.721,316.193L99.099,316.193L99.099,304.915L109.446,304.915ZM94.656,300.473L87.802,300.473C90.272,296.35 92.958,293.166 94.656,291.332L94.656,300.473ZM94.656,304.915L94.656,316.193L82.16,316.193C82.625,312.121 83.869,308.311 85.446,304.915L94.656,304.915ZM76.999,316.193L68.49,316.193C68.713,312.148 69.789,308.333 71.534,304.915L79.826,304.915C78.436,308.356 77.387,312.147 76.999,316.193ZM81.987,320.635L94.656,320.635L94.656,331.228L84.423,331.228C82.933,327.793 82.118,324.257 81.987,320.635ZM94.656,335.671L94.656,345.068C91.395,342.043 88.761,338.907 86.751,335.671L94.656,335.671ZM99.099,331.228L99.099,320.635L112.892,320.635C112.76,324.257 111.945,327.793 110.456,331.228L99.099,331.228ZM118.021,320.635L124.945,320.635C124.563,324.438 123.429,328.02 121.693,331.228L115.982,331.228C117.227,327.796 117.91,324.261 118.021,320.635ZM117.88,316.193C117.491,312.147 116.443,308.356 115.054,304.915L121.999,304.915C123.744,308.333 124.82,312.148 125.043,316.193L117.88,316.193ZM119.183,300.473L112.992,300.473C111.094,296.855 108.942,293.774 107.039,291.379C111.873,293.263 116.061,296.433 119.183,300.473ZM88.375,290.714C86.349,293.191 83.965,296.51 81.886,300.472L74.348,300.472C77.87,295.917 82.744,292.458 88.375,290.714ZM74.817,335.671L80.845,335.671C82.38,338.624 84.361,341.495 86.771,344.276C82.059,342.499 77.947,339.503 74.817,335.671ZM108.887,343.374C110.952,340.876 112.664,338.305 114.033,335.671L118.713,335.671C116.065,338.914 112.712,341.56 108.887,343.374Z" style="fill-rule:nonzero;"/>
                </g>
                <g>
                    <path d="M92.766,280.225C74.238,280.225 59.218,295.245 59.218,313.773C59.218,332.301 74.238,347.321 92.766,347.321C111.294,347.321 126.314,332.301 126.314,313.773C126.313,295.245 111.293,280.225 92.766,280.225ZM95.196,341.985C95.164,341.988 95.131,341.99 95.098,341.993L95.098,331.671L104.126,331.671C101.913,335.236 98.928,338.678 95.196,341.985ZM64.587,316.635L72.858,316.635C72.969,320.261 73.652,323.795 74.897,327.228L67.839,327.228C66.103,324.02 64.969,320.439 64.587,316.635ZM95.099,296.473L95.099,286.157C96.468,287.524 99.958,291.238 103.092,296.473L95.099,296.473ZM105.446,300.915C107.019,304.308 108.259,308.117 108.721,312.193L95.099,312.193L95.099,300.915L105.446,300.915ZM90.656,296.473L83.802,296.473C86.272,292.35 88.958,289.166 90.656,287.332L90.656,296.473ZM90.656,300.915L90.656,312.193L78.16,312.193C78.625,308.121 79.869,304.311 81.446,300.915L90.656,300.915ZM72.999,312.193L64.49,312.193C64.713,308.148 65.789,304.333 67.534,300.915L75.826,300.915C74.436,304.356 73.387,308.147 72.999,312.193ZM77.987,316.635L90.656,316.635L90.656,327.228L80.423,327.228C78.933,323.793 78.118,320.257 77.987,316.635ZM90.656,331.671L90.656,341.068C87.395,338.043 84.761,334.907 82.751,331.671L90.656,331.671ZM95.099,327.228L95.099,316.635L108.892,316.635C108.76,320.257 107.945,323.793 106.456,327.228L95.099,327.228ZM114.021,316.635L120.945,316.635C120.563,320.438 119.429,324.02 117.693,327.228L111.982,327.228C113.227,323.796 113.91,320.261 114.021,316.635ZM113.88,312.193C113.491,308.147 112.443,304.356 111.054,300.915L117.999,300.915C119.744,304.333 120.82,308.148 121.043,312.193L113.88,312.193ZM115.183,296.473L108.992,296.473C107.094,292.855 104.942,289.774 103.039,287.379C107.873,289.263 112.061,292.433 115.183,296.473ZM84.375,286.714C82.349,289.191 79.965,292.51 77.886,296.472L70.348,296.472C73.87,291.917 78.744,288.458 84.375,286.714ZM70.817,331.671L76.845,331.671C78.38,334.624 80.361,337.495 82.771,340.276C78.059,338.499 73.947,335.503 70.817,331.671ZM104.887,339.374C106.952,336.876 108.664,334.305 110.033,331.671L114.713,331.671C112.065,334.914 108.712,337.56 104.887,339.374Z" style="fill:rgb(27,48,103);fill-rule:nonzero;"/>
                </g>
            </g>
            <path d="M322.967,438.06L303.418,435.282L213.887,454.605L279.236,455.718L322.967,438.06Z" style="fill:url(#_Linear2);fill-rule:nonzero;"/>
            <path d="M247.464,435.709L222.523,435.282L128.45,456.675L193.799,457.787L247.464,435.709Z" style="fill:url(#_Linear3);fill-rule:nonzero;"/>
            <g>
                <path d="M236.401,133.816L204.818,86.906L203.338,87.927C203.087,86.516 202.233,82.21 200.649,79.04C198.728,75.199 197.768,70.78 197.768,70.78C197.768,70.78 195.078,72.652 196.807,79.591C192.773,79.039 182.593,74.622 179.712,70.78C178.175,69.628 176.062,70.78 176.062,70.78C176.062,70.78 182.016,78.655 184.898,80.576C181.056,79.04 175.87,75.007 174.717,74.43C173.565,73.853 172.796,75.582 172.796,75.582C172.796,75.582 173.163,76.013 173.78,76.675L175.101,82.912C175.101,82.912 185.738,93.274 189.795,93.637C191.044,93.749 192.242,93.791 193.303,93.797C193.489,94.022 193.672,94.245 193.852,94.466L189.064,97.768C189.064,97.768 214.312,142.567 222.139,152.686C229.965,162.804 241.485,181.142 241.485,181.142L262.212,154.035L236.401,133.816Z" style="fill:url(#_Linear4);fill-rule:nonzero;"/>
                <path d="M221.052,146.708L178.148,109.867L176.992,111.244C176.375,109.95 174.409,106.025 172.04,103.39C169.168,100.196 167.07,96.192 167.07,96.192C167.07,96.192 164.974,98.711 168.483,104.942C164.447,105.481 153.46,103.925 149.662,100.986C147.874,100.283 146.143,101.955 146.143,101.955C146.143,101.955 153.974,107.966 157.263,109.053C153.151,108.592 147.08,106.08 145.816,105.831C144.552,105.581 144.27,107.452 144.27,107.452C144.27,107.452 144.739,107.77 145.509,108.245L148.439,113.908C148.439,113.908 161.445,121.074 165.453,120.346C166.687,120.122 167.853,119.845 168.878,119.569C169.117,119.737 169.353,119.903 169.585,120.068L165.846,124.522C165.846,124.522 202.082,161.01 212.314,168.688C222.546,176.365 238.521,190.986 238.521,190.986L251.307,159.349L221.052,146.708Z" style="fill:url(#_Linear5);fill-rule:nonzero;"/>
                <path d="M211.748,164.313L160.991,139.378L160.216,141C159.295,139.901 156.409,136.593 153.456,134.635C149.877,132.261 146.843,128.909 146.843,128.909C146.843,128.909 145.444,131.872 150.4,137.027C146.628,138.559 135.601,139.801 131.188,137.905C129.281,137.672 128.024,139.724 128.024,139.724C128.024,139.724 137.11,143.585 140.566,143.814C136.47,144.397 129.963,143.484 128.677,143.558C127.391,143.632 127.586,145.514 127.586,145.514C127.586,145.514 128.12,145.705 128.984,145.972L133.238,150.721C133.238,150.721 147.623,154.405 151.322,152.698C152.461,152.173 153.52,151.613 154.444,151.089C154.718,151.192 154.987,151.293 155.254,151.395L152.748,156.643C152.748,156.643 196.961,182.905 208.788,187.778C220.615,192.651 239.74,202.81 239.74,202.81L244.204,168.98L211.748,164.313Z" style="fill:url(#_Linear6);fill-rule:nonzero;"/>
                <path d="M308.344,208.144L363.855,218.94L363.492,220.701C364.89,220.382 369.187,219.489 372.724,219.713C377.01,219.984 381.453,219.146 381.453,219.146C381.453,219.146 380.777,222.353 373.713,223.466C375.794,226.966 383.83,234.618 388.492,235.773C390.152,236.739 389.915,239.134 389.915,239.134C389.915,239.134 380.342,236.721 377.449,234.816C380.361,237.755 386.097,240.958 387.077,241.795C388.057,242.631 386.765,244.013 386.765,244.013C386.765,244.013 386.225,243.843 385.375,243.533L379.116,244.748C379.116,244.748 365.427,238.992 363.512,235.398C362.922,234.291 362.416,233.205 361.997,232.23C361.717,232.147 361.441,232.065 361.167,231.985L359.993,237.681C359.993,237.681 308.896,231.896 296.526,228.633C284.157,225.371 262.78,221.911 262.78,221.911L279.662,192.257L308.344,208.144Z" style="fill:url(#_Linear7);fill-rule:nonzero;"/>
                <path d="M309.507,222.136L358.66,250.1L357.754,251.652C359.18,251.796 363.538,252.323 366.818,253.665C370.793,255.291 375.271,255.916 375.271,255.916C375.271,255.916 373.607,258.739 366.557,257.537C367.411,261.518 372.582,271.336 376.629,273.92C377.894,275.366 376.904,277.559 376.904,277.559C376.904,277.559 368.604,272.214 366.471,269.485C368.291,273.201 372.704,278.068 373.365,279.175C374.027,280.281 372.36,281.177 372.36,281.177C372.36,281.177 371.902,280.843 371.196,280.278L364.877,279.43C364.877,279.43 353.744,269.603 353.077,265.584C352.872,264.347 352.739,263.156 352.653,262.098C352.414,261.929 352.179,261.764 351.945,261.601L349.013,266.623C349.013,266.623 302.441,244.817 291.762,237.774C281.084,230.731 261.931,220.624 261.931,220.624L287.402,197.917L309.507,222.136Z" style="fill:url(#_Linear8);fill-rule:nonzero;"/>
                <path d="M306.088,221.865L338.139,268.457L336.647,269.459C337.868,270.21 341.56,272.584 343.927,275.221C346.796,278.417 350.554,280.931 350.554,280.931C350.554,280.931 347.826,282.746 342.005,278.592C341.038,282.547 341.413,293.638 343.93,297.727C344.438,299.579 342.591,301.122 342.591,301.122C342.591,301.122 337.45,292.694 336.72,289.308C336.739,293.446 338.589,299.75 338.702,301.034C338.816,302.318 336.925,302.398 336.925,302.398C336.925,302.398 336.658,301.898 336.269,301.082L330.951,297.564C330.951,297.564 325.214,283.867 326.366,279.96C326.72,278.757 327.12,277.627 327.504,276.638C327.363,276.382 327.223,276.13 327.083,275.882L322.255,279.124C322.255,279.124 289.844,239.2 283.302,228.207C276.761,217.214 263.929,199.77 263.929,199.77L296.75,190.434L306.088,221.865Z" style="fill:url(#_Linear9);fill-rule:nonzero;"/>
                <g>
                    <path d="M311.854,428.328C311.854,428.328 311.659,437.65 311.854,441.163C311.933,442.571 301.446,443.46 301.212,438.06C301.121,435.96 300.405,428.328 300.405,428.328L311.854,428.328Z" style="fill:rgb(20,36,74);fill-rule:nonzero;"/>
                    <path d="M313.866,428.328C313.866,428.328 318.248,434.782 321.586,435.652C322.89,435.992 322.809,437.619 322.966,438.061C323.122,438.502 321.865,440.848 317.019,440.381C312.172,439.912 308.411,438.061 308.411,438.061L313.866,428.328Z" style="fill:rgb(20,36,74);fill-rule:nonzero;"/>
                </g>
                <path d="M277.816,140.573C277.476,137.518 281.379,133.276 284.604,123.433C287.829,113.59 280.018,100.523 280.018,100.523C280.018,100.523 270.349,97.978 269.67,97.808C268.991,97.639 253.888,98.657 253.888,98.657C253.888,98.657 247.609,115.118 247.778,119.699C247.948,124.281 250.493,135.481 250.493,135.481L257.281,143.588L277.816,140.573Z" style="fill:rgb(219,165,144);fill-rule:nonzero;"/>
                <path d="M254.651,112.317C254.27,112.445 254.015,124.79 254.015,124.79L251.979,125.681L250.579,109.899L254.651,112.317Z" style="fill:url(#_Linear10);fill-rule:nonzero;"/>
                <path d="M280.018,98.572C273.107,95.899 255.543,93.354 251.47,96.281C247.397,99.208 245.997,108.372 245.997,108.372L249.64,111.02C249.64,111.02 251.094,112.931 253.167,115.694L256.943,110.918L259.743,115.803L259.184,123.807C262.758,128.692 266.185,133.529 267.125,135.354C271.198,135.736 278.861,136.628 278.861,136.628C278.861,136.628 287.639,126.317 287.564,121.481C287.488,116.645 286.929,101.244 280.018,98.572Z" style="fill:url(#_Linear11);fill-rule:nonzero;"/>
                <path d="M257.69,115.014L255.554,117.79L256.622,120.054L255.554,122.103L256.622,122.617C256.622,122.617 256.493,121.079 256.622,121.079C256.751,121.079 257.69,119.114 257.69,119.114L258.971,117.32L257.088,117.789L257.69,115.014Z" style="fill:rgb(184,140,123);fill-rule:nonzero;"/>
                <path d="M249.13,144.978L254.099,138.805C254.099,138.805 269.382,133.11 277.735,137.601C285.569,141.812 284.364,144.978 284.364,144.978" style="fill:rgb(251,255,255);fill-rule:nonzero;"/>
                <path d="M250.734,141.811C243.309,143.657 220.387,155.244 220.387,155.244L238.484,260.167L292.21,258.963L309.942,156.049C309.942,156.049 288.325,141.911 281.011,139.662C272.431,137.022 259.446,139.645 250.734,141.811Z" style="fill:rgb(27,48,103);fill-rule:nonzero;"/>
                <path d="M278.151,249.023L271.652,276.127C271.652,276.127 259.219,324.312 250.063,347.801C252.73,371.291 252.923,428.292 252.923,428.292C252.923,428.292 240.139,428.282 231.826,427.077C209.058,342.153 239.192,241.194 239.192,241.194L278.151,249.023Z" style="fill:url(#_Linear12);fill-rule:nonzero;"/>
                <path d="M294.92,237.58C294.92,237.58 310.112,321.901 309.942,343.249C312.783,350.745 319.824,411.718 319.598,432.048C319.529,438.288 294.92,428.292 294.92,428.292C294.92,428.292 286.02,363.46 286.046,347.801C280.651,336.959 261.221,251.434 261.221,251.434L294.92,237.58Z" style="fill:url(#_Linear13);fill-rule:nonzero;"/>
                <g>
                    <path d="M154.027,177.327L145.685,183.468C145.685,183.468 134.626,168.492 130.016,166.763C125.406,165.034 120.028,158.696 120.028,158.696C120.028,158.696 120.796,156.967 121.949,157.544C123.102,158.12 128.288,162.154 132.13,163.69C129.248,161.769 123.294,153.894 123.294,153.894C123.294,153.894 125.407,152.742 126.944,153.894C129.825,157.736 140.005,162.154 144.039,162.705C142.31,155.766 145,153.894 145,153.894C145,153.894 145.96,158.312 147.881,162.154C149.802,165.995 150.651,171.517 150.651,171.517L154.027,177.327Z" style="fill:rgb(219,165,144);fill-rule:nonzero;"/>
                    <path d="M144.615,176.75C144.615,176.75 141.085,177.113 137.028,176.75C132.971,176.388 122.334,166.026 122.334,166.026L121.012,159.788L144.615,176.75Z" style="fill:rgb(219,165,144);fill-rule:nonzero;"/>
                </g>
                <path d="M198.537,199.24L149.733,170.669L140.252,187.289C140.252,187.289 182.432,216.705 193.873,222.427C205.313,228.15 220.387,184.729 220.387,184.729L198.537,199.24Z" style="fill:url(#_Linear14);fill-rule:nonzero;"/>
                <path d="M220.387,155.244L185.889,204.154C185.889,204.154 189.953,224.328 197.782,221.921C205.612,219.513 243.98,179.159 243.98,179.159L220.387,155.244" style="fill:url(#_Linear15);fill-rule:nonzero;"/>
                <g>
                    <path d="M338.887,193.8L350.605,195.144C350.605,195.144 358.288,184.965 362.898,183.236C367.508,181.507 372.886,175.169 372.886,175.169C372.886,175.169 372.118,173.44 370.965,174.017C369.812,174.593 364.626,178.627 360.784,180.163C363.666,178.242 369.62,170.368 369.62,170.368C369.62,170.368 367.507,169.215 365.97,170.368C363.089,174.21 352.909,178.627 348.875,179.179C350.604,172.24 347.914,170.368 347.914,170.368C347.914,170.368 346.954,174.786 345.033,178.627C343.112,182.468 342.263,187.99 342.263,187.99L338.887,193.8Z" style="fill:rgb(219,165,144);fill-rule:nonzero;"/>
                    <path d="M348.299,193.223C348.299,193.223 351.829,193.586 355.886,193.223C359.943,192.861 370.58,182.499 370.58,182.499L371.902,176.261L348.299,193.223Z" style="fill:rgb(219,165,144);fill-rule:nonzero;"/>
                </g>
                <path d="M326.633,230.401L355.886,201.443L343.99,185.181L312.822,210.026L326.633,230.401Z" style="fill:url(#_Linear16);fill-rule:nonzero;"/>
                <path d="M277.735,166.092L311.861,231.299C311.861,231.299 326.162,236.337 327.466,228.25C328.771,220.163 309.62,155.512 309.62,155.512L277.735,166.092Z" style="fill:url(#_Linear17);fill-rule:nonzero;"/>
                <path d="M229.838,192.029C229.838,192.029 228.279,272.212 228.239,289.98C236.631,292.088 282.707,288.474 282.707,288.474L295.054,286.065L304.992,283.052C304.992,283.052 301.679,249.625 298.367,236.073C295.055,222.522 297.463,213.788 297.463,213.788L297.118,203.127L229.838,192.029Z" style="fill:url(#_Linear18);fill-rule:nonzero;"/>
                <path d="M233.699,425.13C233.699,425.13 228.935,435.361 217.999,434.479C217.293,435.009 217.999,438.184 217.999,438.184C217.999,438.184 227.348,439.947 230.524,438.184C233.699,436.418 235.804,435.282 235.804,435.282C235.804,435.282 235.633,438.161 236.369,438.822C238.439,440.682 249.534,437.783 249.534,437.783L250.592,426.315L233.699,425.13Z" style="fill:rgb(20,36,74);fill-rule:nonzero;"/>
                <path d="M273.409,150.602L271.017,188.682L273.409,223.369L275.802,188.682L273.409,150.602Z" style="fill:rgb(6,32,83);fill-rule:nonzero;"/>
                <path d="M302.633,157.559L301.027,207.791L307.241,157.559L302.633,157.559Z" style="fill:rgb(6,32,83);fill-rule:nonzero;"/>
                <path d="M322.96,203.18L326.89,218.502L326.036,206.256L334.354,210.869L325.182,203.18L322.96,203.18Z" style="fill:rgb(9,24,68);fill-rule:nonzero;"/>
                <path d="M223.317,157.559L230.778,169.854L229.539,207.791L228.239,194.181L228.239,170.67L223.317,157.559Z" style="fill:rgb(6,32,83);fill-rule:nonzero;"/>
                <path d="M191.54,195.144L185.889,205.487L187.208,196.809L177.469,198.449L191.54,195.144Z" style="fill:rgb(9,24,68);fill-rule:nonzero;"/>
                <path d="M270.111,289.354L290.412,286.972L302.633,283.769L303.805,290.769L287.122,297.327L270.111,289.354Z" style="fill:rgb(9,24,68);fill-rule:nonzero;"/>
                <path d="M268.091,289.482L261.221,313.773L254.614,297.327L237.442,292.116L228.824,289.482L252.051,290.548L268.091,289.482Z" style="fill:rgb(9,24,68);fill-rule:nonzero;"/>
                <path d="M308.18,342.35C308.18,342.35 290.071,359.522 290.411,358.753C290.751,357.984 299.293,346.308 299.293,346.308L288.189,346.308L300.235,342.349L308.18,342.349L308.18,342.35Z" style="fill:rgb(9,24,68);fill-rule:nonzero;"/>
                <path d="M250.734,342.35L241.97,347.391C241.97,347.391 232.572,345.257 231.889,344.871C231.206,344.485 240.311,348.416 241.311,348.758C242.311,349.099 235.306,355.08 235.306,355.08L243.849,351.833L246.925,348.715L248.458,346.308L246.071,356.104L250.062,347.8L250.734,342.35Z" style="fill:rgb(9,24,68);fill-rule:nonzero;"/>
            </g>
            <path d="M259.561,124.326L258.629,126.548L256.238,126.548L254.614,125.01L256.152,125.682L258.032,125.682L259.302,122.104L259.561,124.326Z" style="fill:rgb(184,140,123);fill-rule:nonzero;"/>
            <g>
                <g opacity="0.15">
                    <path d="M116.385,234.15C116.385,236.415 114.549,238.251 112.284,238.251L56.726,238.251C54.461,238.251 52.625,236.415 52.625,234.15L52.625,198.268C52.625,196.003 54.461,194.167 56.726,194.167L112.283,194.167C114.548,194.167 116.384,196.003 116.384,198.268L116.384,234.15L116.385,234.15Z" style="fill-rule:nonzero;"/>
                    <path d="M95.342,229.024C95.342,229.024 89.532,244.059 95.342,258.072C78.598,251.921 79.28,232.442 79.28,232.442L95.342,229.024Z" style="fill-rule:nonzero;"/>
                    <rect x="68.149" y="204.462" width="34.565" height="3.794"/>
                    <rect x="68.149" y="213.92" width="34.565" height="3.794"/>
                    <rect x="68.149" y="223.009" width="34.565" height="3.794"/>
                </g>
                <g>
                    <g>
                        <g>
                            <path d="M112.385,230.15C112.385,232.415 110.549,234.251 108.284,234.251L52.726,234.251C50.461,234.251 48.625,232.415 48.625,230.15L48.625,194.268C48.625,192.003 50.461,190.167 52.726,190.167L108.283,190.167C110.548,190.167 112.384,192.003 112.384,194.268L112.384,230.15L112.385,230.15Z" style="fill:rgb(27,48,103);fill-rule:nonzero;"/>
                            <path d="M91.342,225.024C91.342,225.024 85.532,240.059 91.342,254.072C74.598,247.921 75.28,228.442 75.28,228.442L91.342,225.024Z" style="fill:rgb(27,48,103);fill-rule:nonzero;"/>
                        </g>
                        <g>
                            <rect x="64.149" y="200.462" width="34.565" height="3.794" style="fill:rgb(175,215,233);"/>
                            <rect x="64.149" y="209.92" width="34.565" height="3.794" style="fill:rgb(175,215,233);"/>
                            <rect x="64.149" y="219.009" width="34.565" height="3.794" style="fill:rgb(175,215,233);"/>
                        </g>
                    </g>
                </g>
            </g>
            <g>
                <g opacity="0.15">
                    <rect x="176.798" y="342.181" width="8.715" height="71.898"/>
                    <path d="M190.813,390.444C190.813,388.737 189.986,387.261 188.332,386.016C186.678,384.772 183.611,383.668 179.129,382.708C172.3,381.32 167.152,379.267 163.684,376.546C160.216,373.826 158.482,370.118 158.482,365.422C158.482,360.443 160.571,356.219 164.751,352.751C168.93,349.283 174.522,347.549 181.529,347.549C188.892,347.549 194.751,349.275 199.108,352.725C203.464,356.175 205.554,360.532 205.377,365.796L205.27,366.115L190.225,366.115C190.225,363.803 189.487,361.919 188.011,360.459C186.535,359.001 184.374,358.273 181.529,358.273C179.003,358.273 177.021,358.886 175.581,360.113C174.14,361.34 173.42,362.879 173.42,364.728C173.42,366.506 174.175,367.964 175.688,369.103C177.199,370.24 180.267,371.254 184.891,372.143C192.004,373.566 197.286,375.656 200.736,378.411C204.186,381.168 205.911,384.965 205.911,389.802C205.911,394.995 203.688,399.236 199.242,402.526C194.796,405.817 188.927,407.461 181.636,407.461C173.954,407.461 167.88,405.514 163.417,401.619C158.953,397.724 156.828,393.288 157.042,388.309L157.149,387.989L171.393,387.989C171.5,391.083 172.514,393.323 174.434,394.711C176.355,396.099 178.862,396.791 181.957,396.791C184.838,396.791 187.033,396.222 188.546,395.084C190.056,393.947 190.813,392.4 190.813,390.444Z" style="fill-rule:nonzero;"/>
                </g>
                <g>
                    <g>
                        <rect x="172.798" y="338.181" width="8.715" height="71.898" style="fill:rgb(27,48,103);"/>
                        <g>
                            <path d="M186.813,386.444C186.813,384.737 185.986,383.261 184.332,382.016C182.678,380.772 179.611,379.668 175.129,378.708C168.3,377.32 163.152,375.267 159.684,372.546C156.216,369.826 154.482,366.118 154.482,361.422C154.482,356.443 156.571,352.219 160.751,348.751C164.93,345.283 170.522,343.549 177.529,343.549C184.892,343.549 190.751,345.275 195.108,348.725C199.464,352.175 201.554,356.532 201.377,361.796L201.27,362.115L186.225,362.115C186.225,359.803 185.487,357.919 184.011,356.459C182.535,355.001 180.374,354.273 177.529,354.273C175.003,354.273 173.021,354.886 171.581,356.113C170.14,357.34 169.42,358.879 169.42,360.728C169.42,362.506 170.175,363.964 171.688,365.103C173.199,366.24 176.267,367.254 180.891,368.143C188.004,369.566 193.286,371.656 196.736,374.411C200.186,377.168 201.911,380.965 201.911,385.802C201.911,390.995 199.688,395.236 195.242,398.526C190.796,401.817 184.927,403.461 177.636,403.461C169.954,403.461 163.88,401.514 159.417,397.619C154.953,393.724 152.828,389.288 153.042,384.309L153.149,383.989L167.393,383.989C167.5,387.083 168.514,389.323 170.434,390.711C172.355,392.099 174.862,392.791 177.957,392.791C180.838,392.791 183.033,392.222 184.546,391.084C186.056,389.947 186.813,388.4 186.813,386.444Z" style="fill:rgb(27,48,103);fill-rule:nonzero;"/>
                        </g>
                    </g>
                </g>
            </g>
        </g>
    </g>
    <g id="DESIGNED_BY_FREEPIK">
    </g>
    <defs>
        <radialGradient id="_Radial1" cx="0" cy="0" r="1" gradientUnits="userSpaceOnUse" gradientTransform="matrix(341.351,0,0,341.351,253.45,96.4494)"><stop offset="0" style="stop-color:rgb(155,180,191);stop-opacity:1"/><stop offset="0.13" style="stop-color:rgb(176,196,205);stop-opacity:1"/><stop offset="0.38" style="stop-color:rgb(210,221,226);stop-opacity:1"/><stop offset="0.61" style="stop-color:rgb(235,240,242);stop-opacity:1"/><stop offset="0.82" style="stop-color:rgb(250,251,252);stop-opacity:1"/><stop offset="1" style="stop-color:white;stop-opacity:1"/><stop offset="1" style="stop-color:white;stop-opacity:1"/></radialGradient>
        <linearGradient id="_Linear2" x1="0" y1="0" x2="1" y2="0" gradientUnits="userSpaceOnUse" gradientTransform="matrix(7.476,-26.3871,26.3871,7.476,266.461,453.272)"><stop offset="0" style="stop-color:white;stop-opacity:0"/><stop offset="1" style="stop-color:rgb(102,108,144);stop-opacity:1"/><stop offset="1" style="stop-color:rgb(102,108,144);stop-opacity:1"/></linearGradient>
        <linearGradient id="_Linear3" x1="0" y1="0" x2="1" y2="0" gradientUnits="userSpaceOnUse" gradientTransform="matrix(8.5798,-30.2827,30.2827,8.5798,185.701,454.156)"><stop offset="0" style="stop-color:white;stop-opacity:0"/><stop offset="1" style="stop-color:rgb(102,108,144);stop-opacity:1"/><stop offset="1" style="stop-color:rgb(102,108,144);stop-opacity:1"/></linearGradient>
        <linearGradient id="_Linear4" x1="0" y1="0" x2="1" y2="0" gradientUnits="userSpaceOnUse" gradientTransform="matrix(-13.9747,-25.766,25.766,-13.9747,241.082,159.818)"><stop offset="0" style="stop-color:rgb(22,29,67);stop-opacity:0.1"/><stop offset="0.29" style="stop-color:rgb(24,37,83);stop-opacity:0.1"/><stop offset="0.68" style="stop-color:rgb(26,45,98);stop-opacity:0.1"/><stop offset="1" style="stop-color:rgb(27,48,103);stop-opacity:0.1"/><stop offset="1" style="stop-color:rgb(27,48,103);stop-opacity:0.1"/></linearGradient>
        <linearGradient id="_Linear5" x1="0" y1="0" x2="1" y2="0" gradientUnits="userSpaceOnUse" gradientTransform="matrix(-20.3141,-21.131,21.131,-20.3141,232.468,170.534)"><stop offset="0" style="stop-color:rgb(22,29,67);stop-opacity:0.2"/><stop offset="0.29" style="stop-color:rgb(24,37,83);stop-opacity:0.2"/><stop offset="0.68" style="stop-color:rgb(26,45,98);stop-opacity:0.2"/><stop offset="1" style="stop-color:rgb(27,48,103);stop-opacity:0.2"/><stop offset="1" style="stop-color:rgb(27,48,103);stop-opacity:0.2"/></linearGradient>
        <linearGradient id="_Linear6" x1="0" y1="0" x2="1" y2="0" gradientUnits="userSpaceOnUse" gradientTransform="matrix(-24.9553,-15.3756,15.3756,-24.9553,228.762,184.523)"><stop offset="0" style="stop-color:rgb(22,29,67);stop-opacity:0.3"/><stop offset="0.29" style="stop-color:rgb(24,37,83);stop-opacity:0.3"/><stop offset="0.68" style="stop-color:rgb(26,45,98);stop-opacity:0.3"/><stop offset="1" style="stop-color:rgb(27,48,103);stop-opacity:0.3"/><stop offset="1" style="stop-color:rgb(27,48,103);stop-opacity:0.3"/></linearGradient>
        <linearGradient id="_Linear7" x1="0" y1="0" x2="1" y2="0" gradientUnits="userSpaceOnUse" gradientTransform="matrix(29.1755,2.82298,-2.82298,29.1755,282.575,213.973)"><stop offset="0" style="stop-color:rgb(22,29,67);stop-opacity:0.1"/><stop offset="0.29" style="stop-color:rgb(24,37,83);stop-opacity:0.1"/><stop offset="0.68" style="stop-color:rgb(26,45,98);stop-opacity:0.1"/><stop offset="1" style="stop-color:rgb(27,48,103);stop-opacity:0.1"/><stop offset="1" style="stop-color:rgb(27,48,103);stop-opacity:0.1"/></linearGradient>
        <linearGradient id="_Linear8" x1="0" y1="0" x2="1" y2="0" gradientUnits="userSpaceOnUse" gradientTransform="matrix(26.7439,11.9976,-11.9976,26.7439,283.228,219.424)"><stop offset="0" style="stop-color:rgb(22,29,67);stop-opacity:0.2"/><stop offset="0.29" style="stop-color:rgb(24,37,83);stop-opacity:0.2"/><stop offset="0.68" style="stop-color:rgb(26,45,98);stop-opacity:0.2"/><stop offset="1" style="stop-color:rgb(27,48,103);stop-opacity:0.2"/><stop offset="1" style="stop-color:rgb(27,48,103);stop-opacity:0.2"/></linearGradient>
        <linearGradient id="_Linear9" x1="0" y1="0" x2="1" y2="0" gradientUnits="userSpaceOnUse" gradientTransform="matrix(18.842,22.4534,-22.4534,18.842,283.616,207.972)"><stop offset="0" style="stop-color:rgb(22,29,67);stop-opacity:0.3"/><stop offset="0.29" style="stop-color:rgb(24,37,83);stop-opacity:0.3"/><stop offset="0.68" style="stop-color:rgb(26,45,98);stop-opacity:0.3"/><stop offset="1" style="stop-color:rgb(27,48,103);stop-opacity:0.3"/><stop offset="1" style="stop-color:rgb(27,48,103);stop-opacity:0.3"/></linearGradient>
        <linearGradient id="_Linear10" x1="0" y1="0" x2="1" y2="0" gradientUnits="userSpaceOnUse" gradientTransform="matrix(-29.0001,-17.7501,17.7501,-29.0001,281.119,136.018)"><stop offset="0" style="stop-color:rgb(22,29,67);stop-opacity:1"/><stop offset="0.29" style="stop-color:rgb(24,37,83);stop-opacity:1"/><stop offset="0.68" style="stop-color:rgb(26,45,98);stop-opacity:1"/><stop offset="1" style="stop-color:rgb(27,48,103);stop-opacity:1"/><stop offset="1" style="stop-color:rgb(27,48,103);stop-opacity:1"/></linearGradient>
        <linearGradient id="_Linear11" x1="0" y1="0" x2="1" y2="0" gradientUnits="userSpaceOnUse" gradientTransform="matrix(-19.062,-34.0613,34.0613,-19.062,279.637,131.551)"><stop offset="0" style="stop-color:rgb(22,29,67);stop-opacity:1"/><stop offset="0.29" style="stop-color:rgb(24,37,83);stop-opacity:1"/><stop offset="0.68" style="stop-color:rgb(26,45,98);stop-opacity:1"/><stop offset="1" style="stop-color:rgb(27,48,103);stop-opacity:1"/><stop offset="1" style="stop-color:rgb(27,48,103);stop-opacity:1"/></linearGradient>
        <linearGradient id="_Linear12" x1="0" y1="0" x2="1" y2="0" gradientUnits="userSpaceOnUse" gradientTransform="matrix(5.6666,136,-136,5.6666,249.321,272.219)"><stop offset="0" style="stop-color:rgb(22,29,67);stop-opacity:1"/><stop offset="0.29" style="stop-color:rgb(24,37,83);stop-opacity:1"/><stop offset="0.68" style="stop-color:rgb(26,45,98);stop-opacity:1"/><stop offset="1" style="stop-color:rgb(27,48,103);stop-opacity:1"/><stop offset="1" style="stop-color:rgb(27,48,103);stop-opacity:1"/></linearGradient>
        <linearGradient id="_Linear13" x1="0" y1="0" x2="1" y2="0" gradientUnits="userSpaceOnUse" gradientTransform="matrix(5.6666,136,-136,5.6666,287.527,270.627)"><stop offset="0" style="stop-color:rgb(22,29,67);stop-opacity:1"/><stop offset="0.29" style="stop-color:rgb(24,37,83);stop-opacity:1"/><stop offset="0.68" style="stop-color:rgb(26,45,98);stop-opacity:1"/><stop offset="1" style="stop-color:rgb(27,48,103);stop-opacity:1"/><stop offset="1" style="stop-color:rgb(27,48,103);stop-opacity:1"/></linearGradient>
        <linearGradient id="_Linear14" x1="0" y1="0" x2="1" y2="0" gradientUnits="userSpaceOnUse" gradientTransform="matrix(-59.75,-39.5,39.5,-59.75,210.948,206.556)"><stop offset="0" style="stop-color:rgb(22,29,67);stop-opacity:1"/><stop offset="0.29" style="stop-color:rgb(24,37,83);stop-opacity:1"/><stop offset="0.68" style="stop-color:rgb(26,45,98);stop-opacity:1"/><stop offset="1" style="stop-color:rgb(27,48,103);stop-opacity:1"/><stop offset="1" style="stop-color:rgb(27,48,103);stop-opacity:1"/></linearGradient>
        <linearGradient id="_Linear15" x1="0" y1="0" x2="1" y2="0" gradientUnits="userSpaceOnUse" gradientTransform="matrix(37.7065,-32.7656,32.7656,37.7065,185.212,210.051)"><stop offset="0" style="stop-color:rgb(22,29,67);stop-opacity:1"/><stop offset="0.29" style="stop-color:rgb(24,37,83);stop-opacity:1"/><stop offset="0.68" style="stop-color:rgb(26,45,98);stop-opacity:1"/><stop offset="1" style="stop-color:rgb(27,48,103);stop-opacity:1"/><stop offset="1" style="stop-color:rgb(27,48,103);stop-opacity:1"/></linearGradient>
        <linearGradient id="_Linear16" x1="0" y1="0" x2="1" y2="0" gradientUnits="userSpaceOnUse" gradientTransform="matrix(38.6666,-34.3334,34.3334,38.6666,310.846,228.1)"><stop offset="0" style="stop-color:rgb(22,29,67);stop-opacity:1"/><stop offset="0.29" style="stop-color:rgb(24,37,83);stop-opacity:1"/><stop offset="0.68" style="stop-color:rgb(26,45,98);stop-opacity:1"/><stop offset="1" style="stop-color:rgb(27,48,103);stop-opacity:1"/><stop offset="1" style="stop-color:rgb(27,48,103);stop-opacity:1"/></linearGradient>
        <linearGradient id="_Linear17" x1="0" y1="0" x2="1" y2="0" gradientUnits="userSpaceOnUse" gradientTransform="matrix(-15.6667,-44.6668,44.6668,-15.6667,318.561,231.746)"><stop offset="0" style="stop-color:rgb(22,29,67);stop-opacity:1"/><stop offset="0.29" style="stop-color:rgb(24,37,83);stop-opacity:1"/><stop offset="0.68" style="stop-color:rgb(26,45,98);stop-opacity:1"/><stop offset="1" style="stop-color:rgb(27,48,103);stop-opacity:1"/><stop offset="1" style="stop-color:rgb(27,48,103);stop-opacity:1"/></linearGradient>
        <linearGradient id="_Linear18" x1="0" y1="0" x2="1" y2="0" gradientUnits="userSpaceOnUse" gradientTransform="matrix(-2.3332,-72.6666,72.6666,-2.3332,266.754,290.827)"><stop offset="0" style="stop-color:rgb(22,29,67);stop-opacity:1"/><stop offset="0.29" style="stop-color:rgb(24,37,83);stop-opacity:1"/><stop offset="0.68" style="stop-color:rgb(26,45,98);stop-opacity:1"/><stop offset="1" style="stop-color:rgb(27,48,103);stop-opacity:1"/><stop offset="1" style="stop-color:rgb(27,48,103);stop-opacity:1"/></linearGradient>
    </defs>
</svg>
